<svg width="18" height="18" viewBox="0 0 18 18" fill="none" xmlns="http://www.w3.org/2000/svg">
<path d="M2.08728 15.75L16.1498 2.25" stroke="#ABA0A3" stroke-linecap="round" stroke-linejoin="round"/>
<path d="M6.72302 14.2884C7.46013 14.5173 8.2282 14.6309 9.00002 14.6252C12.075 14.6769 15.1935 12.5154 17.118 10.3974C17.3244 10.1683 17.4385 9.87096 17.4385 9.56266C17.4385 9.25436 17.3244 8.95698 17.118 8.72791C16.4208 7.96306 15.6484 7.27032 14.8125 6.66016" stroke="#ABA0A3" stroke-linecap="round" stroke-linejoin="round"/>
<path d="M10.8097 4.7114C10.218 4.56414 9.60979 4.49306 8.99999 4.4999C5.97674 4.44965 2.84999 6.5639 0.884243 8.72615C0.677905 8.95522 0.563721 9.2526 0.563721 9.5609C0.563721 9.8692 0.677905 10.1666 0.884243 10.3957C1.48194 11.0499 2.1343 11.6521 2.83424 12.1957" stroke="#ABA0A3" stroke-linecap="round" stroke-linejoin="round"/>
<path d="M6.1875 9.5625C6.1874 9.19313 6.26008 8.82736 6.40139 8.48609C6.54269 8.14481 6.74986 7.83473 7.01104 7.57354C7.27223 7.31236 7.58231 7.10519 7.92359 6.96389C8.26486 6.82258 8.63063 6.7499 9 6.75" stroke="#ABA0A3" stroke-linecap="round" stroke-linejoin="round"/>
<path d="M11.8125 9.56152C11.8126 9.93093 11.7399 10.2967 11.5986 10.6381C11.4573 10.9794 11.2502 11.2895 10.989 11.5507C10.7278 11.812 10.4177 12.0192 10.0765 12.1606C9.73519 12.302 9.36941 12.3748 9 12.3748" stroke="#ABA0A3" stroke-linecap="round" stroke-linejoin="round"/>
</svg>
