<svg width="259" height="260" viewBox="0 0 259 260" fill="none" xmlns="http://www.w3.org/2000/svg">
<rect y="0.87146" width="259" height="259" rx="129.5" fill="#F8F7F7"/>
<path d="M166.467 65.214C166.462 64.7835 166.59 64.362 166.832 64.0063C167.075 63.6506 167.421 63.3779 167.823 63.225C168.535 62.9949 169.282 62.8958 170.029 62.9325C170.008 63.2348 170.026 63.5387 170.083 63.8363C170.108 63.9227 170.161 63.9985 170.233 64.0524C170.305 64.1064 170.392 64.1355 170.482 64.1355C170.572 64.1355 170.659 64.1064 170.731 64.0524C170.803 63.9985 170.856 63.9227 170.881 63.8363C171.518 59.5561 176.011 58.7585 179.68 58.9984C179.661 59.2426 179.698 59.4879 179.787 59.716C179.809 59.7905 179.855 59.856 179.917 59.9025C179.979 59.9491 180.055 59.9742 180.132 59.9742C180.21 59.9742 180.286 59.9491 180.348 59.9025C180.41 59.856 180.456 59.7905 180.478 59.716C180.562 59.0663 180.819 58.4511 181.222 57.9347C181.653 57.5224 182.222 57.2854 182.818 57.2697C182.706 57.7577 182.662 58.2586 182.685 58.7585C182.686 58.8302 182.712 58.8992 182.759 58.953C182.807 59.0068 182.872 59.0417 182.943 59.0514C183.014 59.0611 183.086 59.0449 183.146 59.0058C183.206 58.9668 183.25 58.9073 183.27 58.8385C186.336 48.7853 196.226 49.0661 200.605 56.1533C199.511 56.5644 198.515 57.1983 197.68 58.0146C197.627 58.0716 197.596 58.1455 197.593 58.2231C197.59 58.3007 197.615 58.3769 197.663 58.4378C197.711 58.4988 197.779 58.5405 197.855 58.5555C197.932 58.5705 198.011 58.5578 198.078 58.5197C201.455 56.8183 204.857 55.7809 208.553 57.1898C210.18 57.8302 211.637 58.8406 212.807 60.1411C213.66 61.1686 214.358 62.3149 214.88 63.5438C201.455 63.6501 187.922 63.3586 174.523 64.4213C174.446 64.4213 174.371 64.4522 174.316 64.507C174.262 64.5619 174.231 64.6363 174.231 64.7138C174.231 64.7914 174.262 64.8658 174.316 64.9207C174.371 64.9755 174.446 65.0063 174.523 65.0063C188.108 64.98 201.667 64.5013 215.253 64.5276C215.812 64.5276 215.971 64.3151 215.944 64.0489C215.45 58.9906 208.339 53.7139 201.135 55.9408C199.7 51.8458 195.074 49.4268 190.873 50.0381C189.109 50.3291 187.453 51.0829 186.075 52.2226C184.697 53.3624 183.647 54.8473 183.03 56.5258C182.367 56.3982 181.68 56.5132 181.094 56.8498C180.509 57.1865 180.063 57.7224 179.84 58.3598C176.756 57.6948 171.093 58.6259 170.187 62.0823C169.6 61.9401 168.99 61.9209 168.395 62.0261C167.8 62.1314 167.234 62.3586 166.731 62.6936C166.31 62.9513 165.986 63.3426 165.813 63.8051C165.639 64.2676 165.626 64.7749 165.774 65.2462C165.796 65.3232 165.843 65.3904 165.909 65.4371C165.974 65.4837 166.053 65.5071 166.133 65.5033C166.213 65.4996 166.289 65.4691 166.35 65.4166C166.411 65.3641 166.452 65.2927 166.467 65.214Z" fill="#ABA0A3"/>
<path d="M40.9261 154.81C45.2074 154.85 49.4866 154.89 53.7679 154.863C53.8205 155.635 53.8741 156.432 53.9531 157.203C53.9483 157.461 54.0256 157.713 54.174 157.923C54.3223 158.134 54.5339 158.291 54.778 158.373C55.9743 158.746 60.7596 158.985 62.9397 158.134C63.8552 157.768 63.5754 156.149 63.6573 154.758C72.1564 154.563 87.421 154.674 93.3538 154.066C93.4388 154.061 93.5187 154.024 93.5772 153.962C93.6357 153.901 93.6683 153.819 93.6683 153.734C93.6683 153.649 93.6357 153.567 93.5772 153.505C93.5187 153.443 93.4388 153.406 93.3538 153.402C88.941 153.109 84.5281 153.242 80.1143 153.322C75.7804 153.402 64.8273 153.562 63.6846 153.588C63.7639 148.138 63.8256 142.688 63.8698 137.237C72.6702 137.929 70.0913 115.676 69.9587 115.436C69.3737 113.363 65.9437 113.522 66.0236 115.915C66.6886 132.744 63.8971 131.761 63.8971 131.761C63.8971 131.761 63.9498 118.92 63.9498 112.486C63.9498 108.763 63.631 103.393 58.9773 102.622C57.823 102.478 56.6512 102.634 55.5745 103.074C53.2082 104.244 51.9856 107.116 52.2781 109.907C52.0918 112.832 52.7295 136.493 52.8358 138.886C52.3234 138.879 51.827 138.707 51.42 138.395C51.013 138.084 50.717 137.65 50.5757 137.157C50.1506 135.802 50.9745 126.417 50.2832 122.403C50.243 121.998 50.0606 121.621 49.7685 121.339C49.4764 121.056 49.0936 120.887 48.6881 120.86C46.9604 120.728 46.508 121.87 46.429 123.758C46.4017 124.237 45.924 135.562 46.4817 138.566C47.1466 142.023 50.0443 143.539 53.0483 143.379C53.2345 146.835 53.4744 150.292 53.7396 153.774C49.4857 153.853 45.2327 153.987 40.9788 154.199C40.9371 154.193 40.8945 154.195 40.8536 154.205C40.8127 154.216 40.7744 154.235 40.7412 154.261C40.7079 154.286 40.6803 154.319 40.6602 154.356C40.6401 154.393 40.6278 154.434 40.6242 154.476C40.6206 154.518 40.6256 154.561 40.6391 154.601C40.6526 154.641 40.6742 154.677 40.7025 154.709C40.7308 154.74 40.7653 154.765 40.8038 154.783C40.8423 154.8 40.8839 154.809 40.9261 154.81Z" fill="#ABA0A3"/>
<path d="M113.161 170.443C112.417 170.361 112.257 171.559 112.974 171.745C113.852 171.958 114.756 172.118 115.633 172.33C116.415 172.594 117.228 172.755 118.052 172.808C118.124 172.805 118.194 172.781 118.254 172.739C118.313 172.698 118.359 172.64 118.387 172.574C118.415 172.507 118.423 172.433 118.411 172.362C118.399 172.291 118.367 172.224 118.318 172.171C117.069 171.054 114.809 170.624 113.161 170.443Z" fill="#5F5457"/>
<path d="M115.9 177.966C114.382 177.201 112.258 177.116 110.583 176.903C109.811 176.797 109.653 178.126 110.396 178.258C112.045 178.551 114.119 179.083 115.794 178.764C115.876 178.74 115.948 178.693 116.004 178.628C116.059 178.563 116.094 178.484 116.105 178.4C116.117 178.315 116.103 178.229 116.067 178.152C116.03 178.076 115.973 178.011 115.9 177.966Z" fill="#5F5457"/>
<path d="M218.734 202.319C216.687 202.682 214.72 203.489 212.726 204.047C210.785 204.606 208.871 205.271 206.956 205.882C190.93 210.911 173.5 214.488 158.676 206.706C140.745 197.243 142.052 184.121 128.841 178.737C129.027 177.742 128.969 176.717 128.673 175.749C128.377 174.782 127.851 173.9 127.14 173.18C125.359 171.239 122.7 170.415 120.227 169.724C120.103 169.687 119.97 169.693 119.849 169.741C119.729 169.79 119.628 169.877 119.563 169.989C116.638 172.568 114.059 177.487 115.548 181.421C115.566 181.501 115.601 181.576 115.652 181.641C115.703 181.705 115.767 181.758 115.841 181.794C119.297 183.735 125.493 184.24 128.018 180.545C134.927 184.895 137.056 190.075 140.806 195.618C144.677 201.269 149.787 205.961 155.747 209.338C172.809 218.934 194.538 214.495 212.987 207.662C215.316 206.878 217.568 205.881 219.714 204.685C219.97 204.519 220.159 204.27 220.25 203.979C220.34 203.688 220.326 203.375 220.209 203.094C220.093 202.813 219.881 202.581 219.612 202.44C219.343 202.298 219.032 202.256 218.734 202.319ZM116.351 181.13C116.093 179.256 116.309 177.348 116.978 175.579C117.647 173.809 118.747 172.236 120.18 171.001C122.012 171.384 123.754 172.115 125.311 173.154C126.932 174.351 128.766 176.557 127.251 179.242C125.097 183.125 119.382 181.955 116.351 181.13Z" fill="#ABA0A3"/>
<path d="M95.7196 164.168C92.5021 163.71 86.5214 165.152 84.5802 169.485C82.2675 169.087 77.296 170.07 74.3983 171.479C67.6815 174.687 63.4851 180.768 59.6953 183.416C53.3578 187.719 44.9318 186.58 38.0278 183.177C37.8482 183.076 37.6362 183.05 37.4373 183.104C37.2384 183.157 37.0685 183.287 36.9641 183.464C36.8596 183.642 36.829 183.853 36.8788 184.053C36.9286 184.253 37.0548 184.426 37.2303 184.534C42.9194 188.84 51.0548 190.462 57.835 187.99C65.906 185.017 70.0039 176.387 78.5186 173.846C80.4511 173.238 82.4778 172.986 84.5002 173.102C84.6725 174.128 85.1122 175.091 85.7749 175.894C86.4376 176.697 87.3 177.311 88.2754 177.674C89.9242 178.366 92.9018 179.216 94.8157 178.552C97.8207 177.303 99.2032 172.969 99.017 170.231C98.9107 168.156 98.2994 164.535 95.7196 164.168ZM85.7746 172.118C85.7319 171.016 85.9797 169.923 86.4931 168.948C87.0065 167.972 87.7675 167.149 88.6996 166.56C90.1691 165.77 91.7928 165.307 93.4585 165.205C91.7845 167.361 90.75 173.951 93.1124 177.222C92.0452 177.222 90.9823 177.088 89.9485 176.823C87.7177 176.158 85.9023 174.617 85.7765 172.118H85.7746ZM94.3887 177.276C92.8443 175.249 92.7127 172.137 93.2723 169.618C93.5112 168.448 93.9363 165.87 95.3198 165.71C97.1548 165.524 98.005 168.741 98.1112 170.07C98.2195 172.197 97.0222 176.637 94.3906 177.276H94.3887Z" fill="#ABA0A3"/>
<path d="M139.987 101.558C141.29 101.106 143.55 100.335 143.39 102.462C143.337 103.339 144.719 103.339 144.773 102.462C145.012 99.1119 141.582 99.4843 139.375 100.308C131.862 103.119 116.575 116.453 99.5232 119.45C92.9585 120.586 89.0186 119.333 84.8475 115.888C81.557 113.052 78.9796 109.482 77.3234 105.466C75.5421 101.371 72.5381 91.9866 74.532 86.2175C76.4157 80.7058 84.5745 75.2585 89.7927 71.143C95.1893 66.9154 100.932 63.1402 106.409 59.0199C106.727 58.78 106.648 58.5411 106.621 58.4885C106.324 52.4679 108.637 49.2006 112.071 47.9068C113.577 47.3821 115.194 47.2607 116.761 47.5545C118.328 47.8484 119.791 48.5473 121.004 49.5819C121.636 50.2536 122.301 50.8924 122.998 51.4958C123.344 51.7347 123.716 51.3359 123.637 50.9907C123.514 50.3432 123.21 49.744 122.759 49.263C126.922 48.6737 131.166 49.1115 135.121 50.5383C143.701 53.5238 154.974 65.1711 158.279 81.0558C160.008 89.2751 158.731 92.3405 159.023 96.2658C159.022 96.3842 159.064 96.4988 159.141 96.5884C159.218 96.6779 159.326 96.7363 159.443 96.7527C159.56 96.769 159.679 96.7422 159.778 96.6772C159.877 96.6122 159.949 96.5135 159.98 96.3994C160.605 94.1067 160.821 91.7217 160.618 89.3541C160.446 82.2596 158.694 75.2928 155.487 68.9619C151.757 61.5022 144.161 52.4669 136.371 49.6072C132.144 48.0384 126.587 47.0283 122.254 48.7833C121.114 47.8327 119.807 47.1024 118.399 46.6296C116.091 45.8678 113.584 45.9812 111.354 46.9484C107.445 48.7034 104.176 54.1536 106.036 58.3803C97.4494 64.1025 87.557 70.9334 79.7161 77.6297C76.6585 80.2622 73.8661 83.506 72.8033 87.5201C71.6606 91.774 73.4683 97.9419 73.9997 100.016C76.1534 108.177 80.9387 116.738 89.1014 120.114C93.9394 122.136 99.4959 121.098 104.361 119.743C119.571 115.453 134.319 103.59 139.987 101.558Z" fill="#5F5457"/>
<path d="M148.015 102.993C148.093 102.621 147.616 102.276 147.323 102.595C146.641 103.313 145.872 104.748 143.654 104.748C143.573 104.75 143.494 104.78 143.434 104.835C143.373 104.89 143.334 104.965 143.325 105.046C143.315 105.127 143.335 105.209 143.381 105.276C143.427 105.343 143.496 105.392 143.575 105.412C145.25 105.705 147.634 104.852 148.015 102.993Z" fill="#5F5457"/>
<path d="M92.5293 87.2013C92.5714 87.2732 92.6338 87.3311 92.7088 87.3675C92.7838 87.404 92.8679 87.4174 92.9505 87.406C93.033 87.3946 93.1104 87.359 93.1727 87.3036C93.235 87.2483 93.2795 87.1756 93.3005 87.095C93.8056 85.0738 92.1305 82.8411 90.5354 81.8046C88.8604 80.7146 86.0426 80.2622 84.3676 81.5911C84.3358 81.6259 84.3143 81.6688 84.3054 81.715C84.2965 81.7612 84.3005 81.809 84.3171 81.8531C84.3336 81.8972 84.362 81.9358 84.3992 81.9648C84.4363 81.9938 84.4807 82.0119 84.5275 82.0172C86.5477 81.9109 88.2491 81.5911 90.0041 82.921C91.5455 84.0374 91.7834 85.5798 92.5293 87.2013Z" fill="#5F5457"/>
<path d="M115.266 121.604C115.906 121.244 116.454 120.739 116.864 120.129C117.275 119.52 117.538 118.823 117.632 118.094C118.413 118.553 119.302 118.798 120.207 118.802C121.113 118.807 122.004 118.572 122.79 118.121C123.576 117.67 124.228 117.019 124.681 116.235C125.134 115.45 125.371 114.56 125.369 113.654C126.166 114.101 127.067 114.332 127.981 114.325C128.895 114.318 129.792 114.073 130.583 113.615C131.373 113.156 132.031 112.499 132.491 111.709C132.951 110.919 133.197 110.023 133.206 109.109C133.962 109.474 134.803 109.631 135.641 109.563C136.478 109.496 137.283 109.206 137.971 108.723C138.659 108.241 139.206 107.584 139.555 106.82C139.905 106.056 140.044 105.212 139.959 104.376C139.879 103.817 138.975 103.844 138.869 104.376C138.819 105.035 138.624 105.675 138.298 106.249C137.972 106.824 137.522 107.319 136.981 107.699C136.347 108.057 135.62 108.216 134.894 108.154C134.168 108.092 133.478 107.813 132.913 107.354C132.803 107.251 132.664 107.186 132.515 107.169C132.365 107.151 132.214 107.182 132.084 107.256C131.953 107.33 131.85 107.444 131.788 107.581C131.727 107.718 131.711 107.872 131.743 108.018C131.924 108.867 131.823 109.751 131.457 110.537C131.091 111.323 130.48 111.969 129.714 112.378C128.949 112.786 128.072 112.934 127.215 112.8C126.358 112.665 125.568 112.256 124.964 111.634C124.855 111.531 124.715 111.465 124.565 111.447C124.416 111.429 124.264 111.46 124.133 111.534C124.003 111.608 123.899 111.723 123.838 111.861C123.777 111.998 123.761 112.152 123.794 112.299C124.056 113.147 124.019 114.059 123.688 114.883C123.357 115.706 122.753 116.391 121.977 116.822C121.201 117.253 120.3 117.403 119.426 117.249C118.552 117.094 117.758 116.643 117.177 115.973C116.618 115.388 115.767 116.131 116.113 116.796C117.017 118.578 115.342 120.492 113.693 120.997C111.46 121.688 109.174 120.625 107.074 120.013C106.755 119.934 106.541 120.385 106.834 120.545C109.254 121.92 112.684 123.148 115.266 121.604Z" fill="#5F5457"/>
<path d="M120.237 119.982C120.149 119.982 120.064 120.017 120.002 120.079C119.939 120.141 119.904 120.226 119.904 120.314C119.904 120.402 119.939 120.487 120.002 120.549C120.064 120.612 120.149 120.647 120.237 120.647C132.515 121.006 145.466 114.532 153.709 104.852C154.914 103.619 155.871 102.166 156.527 100.571C156.66 100.173 156.155 99.9591 155.862 100.199C153.976 101.752 153.327 103.8 148.923 107.829C140.993 114.98 130.891 119.26 120.237 119.982Z" fill="#5F5457"/>
<path d="M87.1597 83.6649C85.5149 84.285 85.7245 86.7761 85.8035 88.185C85.8571 89.355 86.1496 91.3752 87.7711 91.1354C89.4481 90.9199 90.0136 88.6901 89.7386 87.015C89.4997 85.8714 88.9713 82.9824 87.1597 83.6649Z" fill="#5F5457"/>
<path d="M77.9874 91.9875C77.5992 91.7686 77.1445 91.6992 76.7087 91.7922C76.2729 91.8852 75.8861 92.1343 75.6211 92.4925C75.4572 92.8211 75.3652 93.1808 75.3514 93.5476C75.3376 93.9145 75.4023 94.2801 75.5411 94.62C76.1525 96.2677 78.0664 97.1189 79.4762 95.8163C80.4064 94.9125 79.8779 93.2306 77.9874 91.9875Z" fill="#5F5457"/>
<path d="M114.171 72.4991C116.678 74.2103 119.549 74.9366 122.254 73.5356C124.594 72.3392 124.513 68.6966 124.328 67.6602C123.873 65.2622 122.594 63.0988 120.711 61.545C115.967 57.1799 110.349 59.0032 109.386 62.6887C109.146 63.6714 109.092 64.6901 109.226 65.6927C110.214 63.1928 113.983 63.1723 115.474 66.5438C116.059 67.8728 116.564 69.893 115.82 71.2755C115.687 71.6133 115.462 71.907 115.171 72.1233C114.879 72.3396 114.533 72.4698 114.171 72.4991Z" fill="#5F5457"/>
<path d="M220.118 115.303C219.778 114.556 219.24 114.611 218.921 114.85C218.602 115.089 217.406 117.19 217.194 117.456C216.529 118.254 218.096 119.29 217.432 120.062C216.98 120.567 215.545 120.354 215.439 121.204C215.332 121.976 216.076 122.534 216.182 123.252C216.289 123.943 215.571 124.209 214.986 124.316C214.481 124.395 213.524 124.289 213.231 124.768C212.965 125.193 213.177 125.724 213.257 126.177C213.496 127.293 214.081 129.421 212.274 129.5C211.396 129.526 210.412 128.888 209.562 129.233C208.328 129.714 209.639 132.944 208.445 133.754C208.1 133.992 204.457 133.487 203.978 133.754C203.5 134.02 202.729 137.849 202.331 138.061C201.612 138.46 198.502 136.279 197.704 136.172C196.907 136.093 194.035 140.985 193.45 140.745C192.999 140.559 191.403 137.981 190.925 137.316C190.633 136.917 190.207 136.439 189.649 136.571C189.116 136.705 184.862 139.47 184.597 139.443C183.64 139.31 183.215 135.615 183.002 134.817C182.736 133.886 182.71 132.637 181.46 132.504C180.556 132.425 177.498 133.674 176.834 133.541C176.01 133.381 177.951 127.213 175.903 126.894C175.266 126.788 171.757 126.522 171.544 125.804C171.384 125.193 174.202 120.806 172.873 120.035C171.943 119.477 168.513 117.589 168.566 116.632C168.645 115.036 170.321 111.447 170.294 111.155C170.214 110.357 164.525 108.949 164.179 108.417C163.833 107.886 165.11 103.737 164.764 102.196C164.631 101.584 158.49 101.372 157.666 101.611C157.373 101.504 157.081 101.956 157.346 102.169C167.954 111.237 166.572 127.001 175.851 136.917C184.236 145.905 199.713 146.363 210.546 135.907C215.605 130.888 218.859 124.334 219.798 117.27C220.189 119.176 220.473 121.102 220.648 123.039C221.146 130.424 219.678 137.809 216.394 144.441C211.139 155.021 200.129 162.86 190.473 165.794C188.266 166.458 185.954 166.671 183.745 167.256C183.346 167.364 183.294 168.054 183.745 168.134C190.616 169.234 217.853 159.203 221.711 131.977C222.43 126.548 222.392 120.308 220.118 115.303Z" fill="#5F5457"/>
<path d="M157.108 163.636C153.284 163.329 149.851 162.971 146.394 161.137C135.767 155.482 132.039 142.628 134.802 130.67C136.003 126.106 137.772 121.712 140.067 117.589C140.097 117.533 140.104 117.468 140.087 117.407C140.071 117.346 140.032 117.293 139.978 117.259C139.924 117.226 139.86 117.214 139.798 117.225C139.736 117.237 139.68 117.272 139.642 117.323C137.346 120.443 135.577 123.919 134.405 127.612C133.709 128.579 132.797 129.371 131.743 129.925C126.949 132.46 122.031 129.319 119.567 132.93C119.09 133.602 118.825 134.402 118.806 135.226C118.787 136.05 119.014 136.861 119.46 137.555C119.78 138.034 120.71 137.741 120.445 137.13C120.191 136.622 120.073 136.058 120.101 135.491C120.129 134.925 120.302 134.375 120.603 133.894C120.905 133.414 121.325 133.019 121.823 132.747C122.322 132.476 122.881 132.337 123.449 132.345C126.317 132.165 130.454 133.101 133.764 129.792C130.733 141.785 133.604 155.342 144.957 161.935C148.467 163.982 153.147 165.55 157.242 164.7C157.88 164.566 157.693 163.683 157.108 163.636Z" fill="#5F5457"/>
<path d="M138.79 136.252C139.668 135.902 140.678 135.934 141.582 135.667C143.175 135.142 144.586 134.174 145.649 132.876C148.282 129.766 148.947 125.326 148.947 121.364C148.947 121.045 148.414 120.939 148.362 121.284C147.404 125.937 146.953 131.999 141.874 134.154C140.306 134.819 137.993 134.447 136.93 136.016C135.84 137.637 137.009 139.551 138.365 140.561C138.764 140.853 139.243 140.296 139.03 139.897C138.445 138.805 136.952 136.988 138.79 136.252Z" fill="#5F5457"/>
<path d="M143.125 141.597C143.192 141.557 143.247 141.499 143.281 141.428C143.315 141.358 143.327 141.279 143.316 141.202C143.304 141.124 143.27 141.052 143.217 140.995C143.164 140.937 143.095 140.897 143.018 140.879C141.742 140.633 140.931 140.186 140.838 138.885C140.812 138.593 140.918 138.3 140.732 138.06C140.465 137.793 139.897 138.019 139.828 139.071C139.784 139.486 139.847 139.905 140.012 140.288C140.176 140.671 140.436 141.006 140.767 141.259C141.098 141.513 141.489 141.677 141.902 141.736C142.315 141.795 142.736 141.747 143.125 141.597Z" fill="#5F5457"/>
<path d="M146.553 141.942C146.845 141.814 147.031 141.33 146.658 141.171C145.981 140.987 145.335 140.7 144.744 140.32C144.175 139.791 143.816 139.073 143.734 138.3C143.682 137.901 143.097 137.741 142.99 138.194C142.874 138.69 142.884 139.208 143.019 139.7C143.154 140.192 143.409 140.643 143.761 141.011C144.085 141.422 144.522 141.729 145.018 141.894C145.514 142.059 146.048 142.076 146.553 141.942Z" fill="#5F5457"/>
<path d="M156.709 124.927C156.678 124.83 156.614 124.748 156.528 124.693C156.443 124.639 156.341 124.616 156.24 124.629C156.139 124.641 156.046 124.689 155.976 124.762C155.907 124.836 155.865 124.932 155.858 125.033C156.144 127.926 155.421 130.828 153.811 133.249C152.056 135.695 149.503 136.864 146.712 137.715C146.643 137.735 146.584 137.779 146.544 137.839C146.505 137.899 146.489 137.971 146.499 138.042C146.509 138.113 146.543 138.178 146.597 138.226C146.651 138.273 146.72 138.299 146.792 138.3C153.253 138.326 158.462 130.982 156.709 124.927Z" fill="#5F5457"/>
<path d="M124.193 138.007C123.744 137.685 123.21 137.502 122.917 137.024C122.782 136.747 122.709 136.444 122.705 136.136C122.7 135.828 122.764 135.523 122.891 135.242C123.024 134.844 122.492 134.631 122.226 134.87C121.859 135.213 121.615 135.665 121.528 136.159C121.442 136.653 121.519 137.162 121.748 137.609C121.935 138.047 122.267 138.407 122.688 138.63C123.109 138.852 123.594 138.923 124.061 138.831C124.142 138.804 124.214 138.754 124.269 138.689C124.324 138.623 124.361 138.544 124.374 138.459C124.388 138.375 124.378 138.288 124.346 138.208C124.314 138.129 124.262 138.059 124.193 138.007Z" fill="#5F5457"/>
<path d="M125.843 137.316C125.517 136.802 125.385 136.19 125.47 135.588C125.489 135.513 125.481 135.434 125.446 135.365C125.412 135.296 125.353 135.242 125.282 135.213C125.211 135.183 125.131 135.181 125.058 135.206C124.985 135.231 124.924 135.282 124.885 135.349C123.715 137.255 125.384 139.334 126.933 139.044C127.331 138.964 127.305 138.459 127.039 138.246C126.599 137.993 126.196 137.68 125.843 137.316Z" fill="#5F5457"/>
<path d="M131.292 135.455C130.023 135.495 128.756 135.325 127.543 134.95C127.091 134.764 126.692 135.375 127.144 135.615C127.783 136.016 128.502 136.273 129.25 136.37C129.998 136.466 130.759 136.399 131.478 136.173C131.877 135.986 131.637 135.486 131.292 135.455Z" fill="#5F5457"/>
<path d="M186.033 157.441C186.246 157.096 185.714 156.644 185.448 156.99C178.573 165.364 177.326 179.864 181.938 189.239C182.284 189.904 183.427 189.451 183.162 188.734C179.239 177.748 179.605 168.584 186.033 157.441Z" fill="#5F5457"/>
<path d="M182.072 190.223C180.973 190.528 179.89 190.892 178.83 191.313C178.67 190.063 178.245 188.628 176.916 188.175C176.558 188.048 176.168 188.047 175.81 188.173C175.451 188.298 175.147 188.543 174.948 188.866C174.644 188.375 174.199 187.986 173.672 187.75C173.444 187.657 173.199 187.61 172.952 187.614C172.706 187.617 172.462 187.67 172.236 187.769C172.011 187.868 171.807 188.012 171.638 188.191C171.469 188.371 171.338 188.583 171.252 188.814C170.863 188.219 170.295 187.763 169.63 187.511C169.285 187.429 168.921 187.468 168.601 187.623C168.281 187.778 168.025 188.039 167.875 188.361C167.732 188.716 167.669 189.098 167.692 189.48C167.715 189.861 167.823 190.233 168.008 190.568C165.668 187.378 163.408 184.374 161.999 180.623C160.557 176.867 159.853 172.868 159.925 168.846C160.14 159.636 165.504 153.636 163.089 144.04C162.039 139.874 159.704 136.144 156.416 133.379C156.204 133.193 155.885 133.485 156.097 133.698C158.908 136.7 160.863 140.399 161.76 144.412C163.878 153.663 158.64 159.762 158.516 169.275C158.444 179.666 163.514 188.598 168.169 191.607C170.311 192.734 172.719 193.257 175.135 193.122C177.132 193.041 181.057 192.414 182.526 191.075C183.028 190.701 182.552 190.149 182.072 190.223ZM176.968 189.664C177.354 190.241 177.574 190.912 177.606 191.605C177.097 191.711 176.582 191.791 176.064 191.844C176.03 191.163 175.839 190.499 175.506 189.904C175.453 189.824 175.426 189.718 175.373 189.638C175.559 188.92 176.624 189.264 176.968 189.664ZM168.594 188.814C169.363 187.638 170.714 189.517 171.199 190.834C171.305 191.126 171.358 191.393 171.465 191.658C170.561 191.532 169.664 191.355 168.779 191.126C168.567 190.489 168.208 189.406 168.598 188.814H168.594ZM172.448 191.791C172.504 191.073 172.306 190.358 171.89 189.77C171.917 189.106 172.422 188.415 173.193 188.76C174.168 189.185 174.783 191.802 174.815 191.898C174.024 191.942 173.231 191.907 172.448 191.791Z" fill="#5F5457"/>
<path d="M152.402 166.77C148.98 170.607 148.274 178.697 150.115 182.216C148.304 182.578 146.453 182.694 144.612 182.562C144.643 182.094 144.566 181.625 144.386 181.191C144.207 180.758 143.929 180.372 143.576 180.063C143.33 179.854 143.032 179.714 142.715 179.658C142.397 179.602 142.07 179.631 141.767 179.743C141.572 179.34 141.312 178.971 140.997 178.653C140.899 178.529 140.776 178.426 140.635 178.353C140.495 178.279 140.341 178.236 140.183 178.226C140.025 178.216 139.866 178.239 139.718 178.295C139.57 178.35 139.435 178.436 139.322 178.547C137.96 175.908 137.249 172.982 137.248 170.013C137.204 166.078 138.117 162.192 139.907 158.687C139.948 158.603 139.957 158.506 139.93 158.416C139.903 158.326 139.842 158.25 139.761 158.203C139.68 158.155 139.584 158.141 139.493 158.161C139.401 158.182 139.321 158.237 139.268 158.315C135.833 163.179 135.013 170.015 136.743 175.942C137.428 177.96 138.405 179.868 139.64 181.605C141.55 184.382 148.215 184.754 150.727 183.041C150.836 182.973 150.918 182.87 150.961 182.75C151.005 182.629 151.006 182.497 150.966 182.376C149.801 175.532 150.309 173.616 152.96 167.166C152.988 167.093 152.991 167.012 152.968 166.937C152.946 166.862 152.899 166.797 152.835 166.751C152.771 166.706 152.694 166.683 152.615 166.687C152.537 166.69 152.462 166.719 152.402 166.77ZM143.07 181.232C143.225 181.593 143.35 181.967 143.442 182.35C143.076 182.249 142.721 182.115 142.379 181.951C142.47 181.476 142.384 180.985 142.139 180.568C142.333 180.608 142.515 180.688 142.676 180.803C142.836 180.918 142.97 181.066 143.07 181.236V181.232ZM140.837 180.754C140.886 180.914 140.943 181.073 140.997 181.232C140.784 181.1 140.571 180.993 140.358 180.861C140.17 180.324 139.948 179.801 139.694 179.292C140.012 178.923 140.779 180.573 140.837 180.758V180.754Z" fill="#5F5457"/>
<path d="M94.6294 172.994C94.4286 173.3 94.3525 173.671 94.4168 174.032C94.4426 174.248 94.551 174.447 94.7193 174.585C94.8877 174.724 95.1031 174.792 95.3206 174.776C96.0919 174.563 96.0119 173.527 95.8793 173.181C95.8448 173.051 95.773 172.934 95.6728 172.844C95.5726 172.755 95.4484 172.697 95.3155 172.677C95.1826 172.657 95.0469 172.676 94.9249 172.733C94.803 172.789 94.7002 172.88 94.6294 172.994Z" fill="#5F5457"/>
<path d="M95.4021 167.73C95.2528 167.804 95.1267 167.918 95.0376 168.058C94.9485 168.199 94.8999 168.361 94.897 168.528C94.8707 169.592 95.8272 169.645 96.1733 169.326C96.693 168.858 96.5145 167.36 95.4021 167.73Z" fill="#5F5457"/>
</svg>
