<svg width="18" height="18" viewBox="0 0 18 18" fill="none" xmlns="http://www.w3.org/2000/svg">
<path d="M8.99999 3.93841C5.97674 3.88741 2.84999 6.00016 0.884243 8.16391C0.677905 8.39298 0.563721 8.69035 0.563721 8.99866C0.563721 9.30696 0.677905 9.60433 0.884243 9.83341C2.80724 11.9514 5.92499 14.1129 8.99999 14.0612C12.075 14.1129 15.1935 11.9514 17.118 9.83341C17.3243 9.60433 17.4385 9.30696 17.4385 8.99866C17.4385 8.69035 17.3243 8.39298 17.118 8.16391C15.15 6.00016 12.0232 3.88741 8.99999 3.93841Z" stroke="#ABA0A3" stroke-linecap="round" stroke-linejoin="round"/>
<path d="M11.8125 8.99977C11.8124 9.556 11.6473 10.0997 11.3381 10.5621C11.029 11.0245 10.5897 11.3849 10.0758 11.5977C9.56185 11.8104 8.99637 11.866 8.45085 11.7574C7.90533 11.6488 7.40426 11.3809 7.011 10.9875C6.61774 10.5941 6.34995 10.093 6.24149 9.54744C6.13303 9.00189 6.18877 8.43643 6.40166 7.92255C6.61456 7.40868 6.97504 6.96947 7.43754 6.66046C7.90003 6.35146 8.44377 6.18652 9 6.18652C9.36943 6.18642 9.73527 6.25913 10.0766 6.40048C10.4179 6.54184 10.728 6.74907 10.9892 7.01033C11.2504 7.2716 11.4576 7.58177 11.5988 7.92313C11.7401 8.26449 11.8127 8.63034 11.8125 8.99977Z" stroke="#ABA0A3" stroke-linecap="round" stroke-linejoin="round"/>
</svg>
