<svg width="18" height="17" viewBox="0 0 18 17" fill="none" xmlns="http://www.w3.org/2000/svg">
<path d="M15.7933 1.7069C15.5662 1.48077 15.2966 1.30188 15 1.18056C14.7033 1.05923 14.3856 0.997886 14.0651 1.00006C13.7447 1.00223 13.4278 1.06787 13.1328 1.1932C12.8379 1.31852 12.5707 1.50105 12.3467 1.73023L2.68 11.3969L1.5 16.0002L6.10333 14.8196L15.77 5.1529C15.9992 4.92899 16.1818 4.66186 16.3072 4.36695C16.4326 4.07204 16.4982 3.75521 16.5004 3.43477C16.5026 3.11432 16.4412 2.79663 16.3198 2.50005C16.1985 2.20347 16.0195 1.93389 15.7933 1.7069V1.7069Z" stroke="black" stroke-width="1.5" stroke-linecap="round" stroke-linejoin="round"/>
<path d="M12.0703 2.00684L15.493 5.4295" stroke="#black" stroke-width="1.5" stroke-linecap="round" stroke-linejoin="round"/>
<path d="M2.68164 11.3965L6.10764 14.8165" stroke="#black" stroke-width="1.5" stroke-linecap="round" stroke-linejoin="round"/>
</svg>
